<?xml version="1.0" encoding="iso-8859-1"?>
<!-- Generator: Adobe Illustrator 21.0.0, SVG Export Plug-In . SVG Version: 6.00 Build 0)  -->
<svg xmlns="http://www.w3.org/2000/svg" xmlns:xlink="http://www.w3.org/1999/xlink" version="1.1" id="Capa_1" x="0px" y="0px" viewBox="0 0 512 512" style="enable-background:new 0 0 512 512;" xml:space="preserve" width="512" height="512">
<g>
	<path style="fill:#6393E4;" d="M256,22C120.69,22,11,131.69,11,267c0,104.226,65.089,193.237,156.831,228.639l0,0l59.894,14.727   C237.003,511.433,246.435,512,256,512c24.28,0,47.728-3.549,69.874-10.128l59.655-26.894v0C454.86,431.707,501,354.748,501,267   C501,131.69,391.31,22,256,22z"/>
	<path style="fill:#474979;" d="M171.221,432.839c-7.332,11.567-9.892,25.527-7.142,38.944l3.752,23.857   c18.941,7.309,39.018,12.327,59.894,14.727l-6.334-41.299c-0.701-3.345,0.081-6.83,2.144-9.555l47.9-58.766   c3.281-4.332,10.019-3.496,12.142,1.505l42.296,99.62c21.234-6.308,41.26-15.413,59.655-26.895l-51.046-130.785H228.962   L171.221,432.839z"/>
	
		<rect x="227.92" y="125.14" transform="matrix(0.986 -0.167 0.167 0.986 -20.5013 43.1436)" style="fill:#F9BD91;" width="36.612" height="36.612"/>
	
		<rect x="228.033" y="126.494" transform="matrix(0.986 -0.167 0.167 0.986 -20.8394 41.8277)" style="fill:#EAA77A;" width="20.406" height="36.612"/>
	<polygon style="fill:#474979;" points="192.967,72.227 192.967,72.227 192.967,72.228  "/>
	<polygon style="fill:#474979;" points="192.838,72.478 192.838,72.478 192.838,72.479  "/>
	<path style="fill:#474979;" d="M213.272,2.831c-24.714,7.89-24.603,22.667-23.69,27.936c0.191,1.105-0.241,2.236-1.15,2.893   c-12.046,8.716,0.47,38.349,0.47,38.349c1.338-0.144,2.816,0.149,3.937,0.468c-0.023-1.618,0.118-3.239,0.438-4.839   c0.244-1.219,0.597-2.469,1.1-3.68c0.873-2.101,1.031-4.426,0.476-6.626c-1.603-6.359-3.601-19.092,4.231-24.409   c6.635-4.504,15.801-4.177,21.764-3.292c3.873,0.575,7.837-0.12,11.283-1.979c5.307-2.862,13.814-6.289,21.586-4.311   c9.148,2.328,11.016,15.021,11.68,21.562c0.231,2.274,1.16,4.433,2.708,6.124c0.914,0.998,2.395,2.584,3.053,3.682   c0.817,1.365,1.481,2.806,1.997,4.298c1.191-0.859,2.826-2.47,4.456-2.525c-0.989-6.786-1.642-14.174-1.642-14.174   C277.027,4.246,239.882-5.665,213.272,2.831z"/>
	<path style="fill:#3B3F6D;" d="M207.764,13.817c0.256-4.362,2.25-8.207,5.269-10.906c-24.468,7.91-24.361,22.604-23.452,27.856   c0.191,1.105-0.241,2.236-1.15,2.893c-12.047,8.717,0.469,38.35,0.469,38.35c1.338-0.144,2.816,0.149,3.936,0.468   c-0.023-1.618,0.118-3.239,0.438-4.839c0.244-1.219,0.597-2.469,1.1-3.68c0.873-2.101,1.031-4.426,0.476-6.626   c-1.603-6.359-3.601-19.092,4.231-24.409c5.365-3.642,12.384-4.125,18.027-3.708C211.277,26.592,207.368,20.583,207.764,13.817z"/>
	<path style="fill:#F9BD91;" d="M280.572,56.869c-2.323-1.455-6.159,0.162-7.693,1.571c0.785,2.251,1.222,4.617,1.306,7.015   l0.521,14.955c0.206,1.177,0.371,2.338,0.501,3.484c5.231,0.602,6.932-4.219,6.82-7.303c-0.048-1.328,0.02-2.657,0.208-3.974   C282.844,68.326,286.393,60.515,280.572,56.869z"/>
	<path style="fill:#EAA77A;" d="M282.233,72.618c0.21-1.476,0.764-3.371,1.169-5.368c-1.353,2.078-3.747,3.396-6.4,3.24   c-0.955-0.056-1.854-0.301-2.666-0.69l0.369,10.61c0.206,1.177,0.371,2.338,0.501,3.484c5.231,0.602,6.931-4.219,6.82-7.303   C281.977,75.265,282.046,73.936,282.233,72.618z"/>
	<path style="fill:#FCD2AE;" d="M271.02,53.947c-0.659-1.1-1.438-2.195-2.354-3.195c-1.551-1.695-2.482-3.858-2.714-6.137   c-0.666-6.555-3.138-19.171-12.306-21.504c-7.789-1.982-16.314,1.451-21.632,4.32c-3.454,1.863-7.428,2.56-11.31,1.983   c-5.977-0.887-15.161-1.215-21.811,3.299c-7.849,5.329-5.846,18.09-4.24,24.463c0.556,2.204,0.398,4.535-0.477,6.64   c-0.504,1.213-0.858,2.466-1.103,3.688c-0.793,3.962-0.508,8.059,0.723,11.903l4.576,14.281   c3.689,21.037,17.426,33.366,28.279,39.109c5.665,2.997,12.187,4.021,18.523,2.91c6.337-1.111,12.121-4.294,16.427-9.04   c8.251-9.093,16.973-25.361,13.283-46.398l-0.557-14.982C274.18,61.292,273.076,57.38,271.02,53.947z"/>
	<path style="fill:#F9BD91;" d="M240.782,130.318c-8.525-6.151-19.524-18.96-23.214-39.997l-4.086-14.366   c-1.099-3.867-1.487-7.946-1.045-11.846c0.136-1.202,0.354-2.432,0.689-3.615c0.581-2.054,0.605-4.361,0.089-6.572   c-1.491-6.393-3.549-19.145,2.222-24.11c0.359-0.308,0.732-0.583,1.111-0.84c-5.583-0.364-12.406,0.178-17.654,3.741   c-7.849,5.329-5.847,18.09-4.24,24.463c0.556,2.204,0.398,4.535-0.477,6.64c-0.504,1.213-0.858,2.466-1.103,3.688   c-0.793,3.962-0.508,8.059,0.723,11.903l4.575,14.281c3.689,21.037,17.427,33.366,28.279,39.109   c5.665,2.997,12.187,4.021,18.523,2.91c1.901-0.333,3.742-0.874,5.518-1.567C247.293,133.847,243.897,132.565,240.782,130.318z"/>
	<path style="fill:#F9BD91;" d="M294.783,181.967c-6.407,0.428-12.883-2.365-16.905-7.964c-6.192-8.619-4.223-20.626,4.396-26.817   l87.398-62.781c8.62-6.192,20.626-4.223,26.817,4.396c6.192,8.619,4.224,20.626-4.396,26.817l-87.398,62.781   C301.675,180.569,298.239,181.736,294.783,181.967z"/>
	<path style="fill:#F9BD91;" d="M204.87,195.704c-2.132,0.142-4.324-0.072-6.498-0.685L94.805,165.796   c-10.214-2.882-16.157-13.499-13.275-23.713c2.881-10.213,13.497-16.157,23.713-13.275l103.566,29.223   c10.214,2.882,16.157,13.499,13.275,23.713C219.816,189.783,212.754,195.178,204.87,195.704z"/>
	<path style="fill:#E5E4E3;" d="M272.923,143.298l-7.905,1.479l-0.116,0.476c-4.191,17.161-27.136,20.503-36.047,5.25l0,0   l-9.213,4.806l25.65,201.34c0,0,35.145-0.948,48.973-6.02L272.923,143.298z"/>
	<path style="fill:#C7D6E5;" d="M286.118,271.49c-2.886,9.717-11.383,17.226-22.089,18.296c-15.376,1.537-26.972-9.2-28.644-22.324   l-14.379-112.865l-1.365,0.712l25.65,201.34c0,0,35.145-0.948,48.973-6.02L286.118,271.49z"/>
	<path style="fill:#FF3C63;" d="M373.604,131.876l-20.915-35.169c-1.281-2.154-4.097-2.808-6.196-1.44l-69.382,45.217l-9.103,14.468   l-2.766,6.559l28.128,201.232c0.269,1.876,2.172,3.048,3.969,2.446l45.454-17.006c1.587-0.533,2.561-2.13,2.306-3.785   l-20.867-160.23c-0.319-2.066,0.468-4.149,2.073-5.49l46.338-41.165C374.302,136.125,374.71,133.737,373.604,131.876z"/>
	<path style="fill:#FF3C63;" d="M235.415,167.834l-5.156-4.907l-14.126-9.625l-80.443-21.066l-9.277,43.162   c-0.549,2.552,0.901,5.11,3.372,5.951l57.484,22.236c1.849,0.63,3.182,2.252,3.441,4.188l17.583,156.977   c0.345,2.581,2.564,4.496,5.167,4.462l37.135,0.554c2.916-0.038,5.142-2.616,4.756-5.506L235.415,167.834z"/>
	<path style="fill:#FF0435;" d="M176.336,183.782c0-17.038,12.695-31.101,29.14-33.27l-69.787-18.276l-9.277,43.162   c-0.549,2.552,0.901,5.11,3.371,5.951l51.453,19.903C178.129,196.163,176.336,190.182,176.336,183.782z"/>
	<path style="fill:#FF738D;" d="M273.692,135.435c-1.621-1.02-3.762-0.533-4.781,1.088l-10.457,16.619   c-1.02,1.621-0.533,3.762,1.088,4.782l5.699,3.586l14.15-22.489L273.692,135.435z"/>
	<path style="fill:#FF738D;" d="M238.293,157.451l-16.226-11.056c-1.583-1.078-3.74-0.669-4.818,0.913l-3.792,5.565l21.958,14.961   l3.791-5.564C240.285,160.687,239.875,158.53,238.293,157.451z"/>
	<path style="fill:#FCD2AE;" d="M217.043,79.253c-3.169-10.128-13.948-15.769-24.078-12.601l-7.658,2.396   c0.196-3.249-0.5-6.654-3.934-7.684c-6.511-1.953-13.05,11.778-14.116,14.13c-0.053,0.035-0.107,0.067-0.16,0.103   c-0.069,0.047-0.143,0.088-0.211,0.136c-0.055,0.039-0.114,0.069-0.169,0.108l-77.893,55.845   c-8.625,6.184-10.605,18.189-4.421,26.814c6.174,8.612,18.176,10.614,26.813,4.421l75.289-53.978l17.937-5.612   C214.571,100.161,220.212,89.381,217.043,79.253z"/>
	<path style="fill:#F9BD91;" d="M125.707,151.848c-12.436,0-22.518-10.081-22.518-22.517c0-3.367,0.744-6.559,2.069-9.428   l-16.434,11.782c-8.625,6.184-10.605,18.189-4.421,26.814c4.021,5.609,10.502,8.407,16.915,7.979   c3.451-0.23,6.882-1.395,9.898-3.558l15.478-11.097C126.368,151.838,126.039,151.848,125.707,151.848z"/>
	<path style="fill:#FCD2AE;" d="M489.716,14.226c-7.422-7.586-19.587-7.719-27.175-0.297l-5.764,5.64   c-1.383-3.655-4.236-8.861-8.97-7.464c-6.301,1.859-4.616,15.996-4.141,19.25l-73.981,53.04   c-8.625,6.184-10.605,18.189-4.421,26.814c6.174,8.612,18.176,10.614,26.814,4.421c79.208-56.864,79.449-56.722,81.726-58.95   l15.615-15.278C497.005,33.979,497.138,21.812,489.716,14.226z"/>
	<path style="fill:#F9BD91;" d="M376.298,79.655l-6.612,4.74c-8.625,6.184-10.605,18.189-4.421,26.814   c6.174,8.612,18.176,10.614,26.814,4.421l7.671-5.5C382.832,111.952,370.298,95.222,376.298,79.655z"/>
	<path style="fill:#3B3F6D;" d="M225.331,457.309c-24.629,12.243-52.697-10.046-45.939-37.016l-8.172,12.546   c-7.332,11.567-9.892,25.527-7.142,38.944l3.752,23.857c18.941,7.309,39.018,12.327,59.894,14.727l-6.334-41.299   C219.94,462.149,224.925,458.046,225.331,457.309z"/>
	<path style="fill:#3B3F6D;" d="M367.346,428.392c2.513,33.646-39.213,51.189-61.556,26.178l20.083,47.303   c21.234-6.308,41.26-15.413,59.655-26.895L367.346,428.392z"/>
</g>















</svg>
